# xmcd
#
# Track frame offsets:
#	150
#	13470
#	36137
#	51927
#	67677
#	80705
#	98758
#	110987
#	128720
#	142405
#	161258
#	177374
#	189173
#
# Disc length: 2659 seconds
#
# Revision: 1
# Processed by: cddbd v1.5.2PL0 Copyright (c) Steve Scherf et al.
# Submitted via: audiograbber 1.83.01
#
DISCID=b50a610d
DTITLE=Various Artist - Country Classics [CD1]
DYEAR=1900
DGENRE=Country
TTITLE0=Kenny Rogers - But You Know That I Love You
TTITLE1=Pam Tissis - Maybe It Was Memphis
TTITLE2=Doug Stone - I Thought It Was You
TTITLE3=Tanya Tucker - Here's Some Lovin'
TTITLE4=T. Graham Brown - Brilliant Conversationalist
TTITLE5=Janie Fricke - Tell Me A Lie
TTITLE6=Exile - I Could Get Used To You
TTITLE7=Freddy Fender - Secret Love
TTITLE8=Lacy J. Dalton - 16th Avenue
TTITLE9=Alabama - I Want To Be With You Tonight
TTITLE10=Hurt - Juice Newton
TTITLE11=Is There Something On Your Mind - Willie Nelson
TTITLE12=Only Daddy That'll Walk The Line - Waylon Jennings
EXTD=
EXTT0=
EXTT1=
EXTT2=
EXTT3=
EXTT4=
EXTT5=
EXTT6=
EXTT7=
EXTT8=
EXTT9=
EXTT10=
EXTT11=
EXTT12=
PLAYORDER=
